#!OML:ASF H:\Not Pregnant\Project 1\Capture day 1\Session 1\non-pregnant.ASF
:FULLY-SPECIFIED
:DEGREES
1358
root 6.97031 15.5576 41.1675 -139.421 257.73 -208.336
lowerback -5.53285 0.875572 3.42816
upperback -8.33393 0.839491 0.188418
thorax -5.51789 0.107314 -1.70308
lowerneck 30.615 -10.7276 -28.0204
upperneck -17.6047 -22.6976 47.7892
head 0.361008 -16.1769 26.9869
rclavicle 1.59028e-015 5.56597e-015
rhumerus -37.9863 -25.067 -66.9931
rradius 22.4954
rwrist 24.1644
rhand -17.6839 -10.9049
rfingers 7.12502
rthumb 8.57542 -40.7107
lclavicle 1.59028e-015 5.56597e-015
lhumerus -41.8136 -10.1368 90.159
lradius 31.284
lwrist 31.4972
lhand -16.2198 -11.0313
lfingers 7.12502
lthumb 9.98814 18.7117
rfemur -20.168 31.4524 12.7175
rtibia 28.7421
rfoot -14.0806 31.6761
rtoes 10.4927
lfemur -28.0055 -4.94063 -10.0783
ltibia 33.8875
lfoot -19.8594 -5.93394
ltoes -26.1025
1359
root 6.97689 15.5629 41.2206 -137.531 258.446 -210.098
lowerback -5.53735 0.902896 3.3524
upperback -8.34871 0.872315 0.15038
thorax -5.52924 0.124905 -1.69995
lowerneck 30.3182 -10.6265 -28.0414
upperneck -17.3493 -22.5649 47.7485
head 0.412417 -16.0819 26.9436
rclavicle 1.54058e-014 3.97569e-015
rhumerus -38.0748 -24.9399 -66.6248
rradius 22.615
rwrist 23.7785
rhand -17.4789 -10.8875
rfingers 7.12502
rthumb 8.77325 -40.6851
lclavicle 1.54058e-014 3.97569e-015
lhumerus -41.6354 -10.3391 89.9264
lradius 31.6763
lwrist 31.8843
lhand -16.4317 -11.293
lfingers 7.12502
lthumb 9.78363 18.4598
rfemur -20.5213 31.5481 12.2863
rtibia 28.818
rfoot -13.8352 31.6727
rtoes 10.6808
lfemur -27.9225 -4.67327 -10.3884
ltibia 33.8469
lfoot -19.8141 -5.37279
ltoes -26.1411
1360
root 6.98398 15.5678 41.2736 -135.331 259.126 -212.175
lowerback -5.54013 0.929438 3.32838
upperback -8.36013 0.903247 0.109999
thorax -5.53776 0.138604 -1.7282
lowerneck 30.0077 -10.5264 -28.0488
upperneck -17.0809 -22.4253 47.7012
head 0.462533 -15.9814 26.8893
rclavicle -6.65929e-015 1.59028e-014
rhumerus -38.1081 -24.7085 -66.3794
rradius 22.6921
rwrist 23.6224
rhand -17.2747 -10.763
rfingers 7.12502
rthumb 8.97026 -40.5523
lclavicle -6.65929e-015 1.59028e-014
lhumerus -41.4431 -10.4938 89.6415
lradius 32.0361
lwrist 32.2091
lhand -16.6332 -11.5562
lfingers 7.12502
lthumb 9.58926 18.2055
rfemur -20.8669 31.5997 11.903
rtibia 28.8986
rfoot -13.6466 31.6117
rtoes 10.7042
lfemur -27.855 -4.44609 -10.6637
ltibia 33.8217
lfoot -19.758 -4.77927
ltoes -26.1515
1361
root 6.99156 15.5725 41.3267 -132.842 259.767 -214.549
lowerback -5.53087 0.950061 3.33933
upperback -8.3738 0.926414 0.0776086
thorax -5.55579 0.146409 -1.76788
lowerneck 29.6914 -10.4153 -28.0753
upperneck -16.7946 -22.2795 47.647
head 0.517373 -15.875 26.8363
rclavicle -3.10104e-014 -7.95139e-016
rhumerus -38.1655 -24.5846 -66.1575
rradius 22.7397
rwrist 23.9221
rhand -17.1086 -10.5383
rfingers 7.12502
rthumb 9.13055 -40.3206
lclavicle -3.10104e-014 -7.95139e-016
lhumerus -41.2471 -10.5713 89.3186
lradius 32.3578
lwrist 32.4633
lhand -16.8038 -11.8127
lfingers 7.12502
lthumb 9.42465 17.9566
rfemur -21.1939 31.5883 11.5637
rtibia 28.9845
rfoot -13.5369 31.4917
rtoes 10.4704
lfemur -27.7984 -4.25155 -10.9205
ltibia 33.8108
lfoot -19.6933 -4.16957
ltoes -26.1209
1362
root 6.99954 15.5771 41.3798 -130.14 260.378 -217.145
lowerback -5.50624 0.962536 3.35804
upperback -8.38989 0.939258 0.045233
thorax -5.58559 0.148366 -1.81217
lowerneck 29.367 -10.3008 -28.1019
upperneck -16.4941 -22.1282 47.5858
head 0.573224 -15.7634 26.7774
rclavicle 1.32689e-014 1.35174e-014
rhumerus -38.2278 -24.5046 -65.9659
rradius 22.7566
rwrist 24.5857
rhand -16.9438 -10.2025
rfingers 7.12502
rthumb 9.28952 -39.9778
lclavicle 1.32689e-014 1.35174e-014
lhumerus -41.0469 -10.5819 88.9568
lradius 32.6426
lwrist 32.6664
lhand -16.9499 -12.0598
lfingers 7.12502
lthumb 9.28366 17.7158
rfemur -21.4974 31.5078 11.2523
rtibia 29.0814
rfoot -13.5117 31.3107
rtoes 10.0071
lfemur -27.7446 -4.12471 -11.174
ltibia 33.8039
lfoot -19.6103 -3.52667
ltoes -26.0486
1363
root 7.00753 15.5815 41.4315 -127.128 260.947 -220.062
lowerback -5.46378 0.958215 3.37473
upperback -8.41076 0.930837 0.0265651
thorax -5.63203 0.139824 -1.84144
lowerneck 29.0384 -10.1647 -28.1541
upperneck -16.1654 -21.964 47.5234
head 0.635239 -15.6441 26.7329
rclavicle -5.41688e-015 -1.35174e-014
rhumerus -38.2734 -24.3819 -65.8372
rradius 22.7505
rwrist 25.484
rhand -16.7988 -9.80497
rfingers 7.12502
rthumb 9.42945 -39.574
lclavicle -5.41688e-015 -1.35174e-014
lhumerus -40.8608 -10.521 88.5633
lradius 32.8983
lwrist 32.8301
lhand -17.0986 -12.2877
lfingers 7.12502
lthumb 9.14016 17.4943
rfemur -21.7715 31.3681 10.996
rtibia 29.195
rfoot -13.5915 31.0406
rtoes 9.25596
lfemur -27.6854 -4.00834 -11.4127
ltibia 33.793
lfoot -19.5202 -2.90502
ltoes -25.9168
1364
root 7.01528 15.5863 41.4817 -123.86 261.502 -223.24
lowerback -5.4147 0.944082 3.35001
upperback -8.43465 0.910294 0.0120498
thorax -5.68652 0.127578 -1.84338
lowerneck 28.7168 -10.018 -28.216
upperneck -15.8275 -21.7915 47.4585
head 0.695358 -15.5204 26.6967
rclavicle -1.39646e-014 7.15625e-015
rhumerus -38.2766 -24.1439 -65.7892
rradius 22.7194
rwrist 26.465
rhand -16.697 -9.39505
rfingers 7.12502
rthumb 9.52772 -39.1596
lclavicle -1.39646e-014 7.15625e-015
lhumerus -40.6888 -10.4258 88.1548
lradius 33.1339
lwrist 33.0017
lhand -17.2381 -12.4748
lfingers 7.12502
lthumb 9.00558 17.3129
rfemur -22.0251 31.1645 10.7593
rtibia 29.3328
rfoot -13.7459 30.682
rtoes 8.31079
lfemur -27.6154 -3.88964 -11.6728
ltibia 33.768
lfoot -19.4247 -2.30569
ltoes -25.7497
1365
root 7.02216 15.5909 41.5305 -120.221 262.049 -226.812
lowerback -5.35509 0.931923 3.30041
upperback -8.4528 0.893252 -0.00939983
thorax -5.74069 0.118643 -1.83871
lowerneck 28.4118 -9.87147 -28.2726
upperneck -15.4967 -21.6193 47.3954
head 0.750093 -15.3987 26.6659
rclavicle 1.12313e-014 1.03368e-014
rhumerus -38.2212 -23.7473 -65.831
rradius 22.667
rwrist 27.4016
rhand -16.629 -9.00058
rfingers 7.12502
rthumb 9.59331 -38.7622
lclavicle 1.12313e-014 1.03368e-014
lhumerus -40.519 -10.3128 87.7268
lradius 33.3397
lwrist 33.1775
lhand -17.3819 -12.6289
lfingers 7.12502
lthumb 8.8668 17.1648
rfemur -22.2443 30.9092 10.5503
rtibia 29.5017
rfoot -13.9657 30.2282
rtoes 7.21175
lfemur -27.5125 -3.74067 -11.9604
ltibia 33.7262
lfoot -19.3306 -1.74303
ltoes -25.5386
1366
root 7.02862 15.5955 41.5766 -116.094 262.575 -230.883
lowerback -5.29437 0.917646 3.21203
upperback -8.46526 0.874048 -0.0326027
thorax -5.78973 0.111244 -1.81416
lowerneck 28.1168 -9.72034 -28.3283
upperneck -15.1754 -21.442 47.342
head 0.799952 -15.2776 26.651
rclavicle 1.43125e-014 1.59028e-014
rhumerus -38.0762 -23.1064 -66.0093
rradius 22.5961
rwrist 28.1477
rhand -16.5445 -8.6153
rfingers 7.12502
rthumb 9.67481 -38.3731
lclavicle 1.43125e-014 1.59028e-014
lhumerus -40.3401 -10.1675 87.2683
lradius 33.508
lwrist 33.3445
lhand -17.505 -12.7495
lfingers 7.12502
lthumb 8.74803 17.0492
rfemur -22.4479 30.6089 10.3757
rtibia 29.7104
rfoot -14.2375 29.6642
rtoes 5.98231
lfemur -27.3889 -3.57684 -12.2549
ltibia 33.6674
lfoot -19.2362 -1.19204
ltoes -25.3275
1367
root 7.03578 15.5997 41.621 -111.43 263.074 -235.493
lowerback -5.23583 0.913682 3.10867
upperback -8.47197 0.868417 -0.0688105
thorax -5.83054 0.111522 -1.79471
lowerneck 27.8448 -9.58343 -28.363
upperneck -14.8968 -21.2701 47.2949
head 0.834694 -15.1625 26.6385
rclavicle 1.05356e-014 0
rhumerus -37.8742 -22.3149 -66.2739
rradius 22.5173
rwrist 28.7318
rhand -16.5775 -8.32179
rfingers 7.12502
rthumb 9.64297 -38.0811
lclavicle 1.05356e-014 0
lhumerus -40.14 -10.0309 86.8055
lradius 33.6388
lwrist 33.5328
lhand -17.6346 -12.8421
lfingers 7.12502
lthumb 8.62292 16.9618
rfemur -22.6586 30.2358 10.2221
rtibia 29.9639
rfoot -14.5323 29.0111
rtoes 4.64958
lfemur -27.269 -3.37383 -12.567
ltibia 33.5982
lfoot -19.1417 -0.68258
ltoes -25.1204
